<?xml version="1.0" encoding="UTF-8"?>
<svg version="1.1" xmlns="http://www.w3.org/2000/svg" width="227" height="234">
<path d="M0 0 C1.04453752 -0.00551503 1.04453752 -0.00551503 2.1101768 -0.01114148 C4.43134865 -0.02210837 6.75247564 -0.02601015 9.07366943 -0.02983093 C10.74303833 -0.03610078 12.41240584 -0.04274804 14.08177185 -0.04974365 C19.55269409 -0.07072124 25.02361641 -0.0811389 30.49456787 -0.09111023 C32.38202682 -0.09515989 34.26948562 -0.09927687 36.15694427 -0.10346031 C45.02455032 -0.1224967 53.8921481 -0.136732 62.75977063 -0.14507228 C72.97971975 -0.15484465 83.19945229 -0.18117073 93.41932511 -0.22157317 C101.33036677 -0.25177017 109.24134645 -0.26654448 117.1524446 -0.26985329 C121.87223804 -0.27219928 126.59179969 -0.28110132 131.31153107 -0.30631447 C135.75379314 -0.32966366 140.19567188 -0.33380104 144.63797951 -0.32355309 C146.26248007 -0.32305931 147.88699996 -0.32933284 149.51144218 -0.34310913 C168.74092147 -0.49698137 168.74092147 -0.49698137 175.78075027 5.89728832 C180.77972851 11.25911713 182.10250882 16.14995549 182.12136841 23.45890808 C182.12589952 24.18511356 182.13043063 24.91131905 182.13509905 25.65953076 C182.14773719 28.08760484 182.14612309 30.51545445 182.14447021 32.94355774 C182.15045581 34.68661283 182.15726143 36.42966527 182.16482544 38.17271423 C182.18248885 42.90415641 182.18718095 47.63552624 182.18845701 52.3669982 C182.1898789 55.32380138 182.1941492 58.28058618 182.19945145 61.2373848 C182.21795239 71.5548189 182.22612192 81.87220134 182.22454834 92.18965149 C182.22334671 101.80374042 182.24445314 111.41760493 182.27603567 121.03163707 C182.30219425 129.28911452 182.31291582 137.54651865 182.31163752 145.80403721 C182.31112779 150.73444263 182.31681708 155.66464856 182.33799362 160.59501266 C182.35736911 165.23260955 182.35750521 169.86981651 182.34296036 174.50742722 C182.34087035 176.20735748 182.34558463 177.90731211 182.35768127 179.60720062 C182.37315332 181.93241248 182.36381413 184.25628303 182.34841919 186.58146667 C182.34950872 187.88115324 182.35059826 189.18083981 182.35172081 190.51991081 C181.52275277 196.56052157 178.58535663 201.01189641 173.91644287 204.95967102 C173.26804443 205.52299133 172.619646 206.08631165 171.95159912 206.66670227 C167.18769321 210.02893754 163.20471901 210.37063915 157.43670654 210.24385071 C155.92622718 210.21807539 154.4157442 210.19251142 152.90525818 210.16712952 C152.10984808 210.1502282 151.31443798 210.13332687 150.49492455 210.11591339 C146.26013618 210.03565769 142.0248977 210.02059338 137.78948975 209.99482727 C132.40950948 209.9591947 127.03210523 209.90414237 121.65350342 209.77363586 C117.29605519 209.66962117 112.94271985 209.63447209 108.58410072 209.64458466 C106.92969136 209.63595509 105.27520778 209.60241177 103.62184715 209.54288483 C98.37790134 209.36164435 93.83939811 209.39449516 88.85394287 211.14717102 C84.85318536 214.98310074 82.79239133 220.04928604 80.85394287 225.14717102 C74.78094482 225.35469055 74.78094482 225.35469055 72.85394287 225.14717102 C71.04144287 223.02217102 71.04144287 223.02217102 69.85394287 220.14717102 C69.31769287 219.11592102 68.78144287 218.08467102 68.22894287 217.02217102 C66.85394287 214.14717102 66.85394287 214.14717102 65.85394287 211.14717102 C64.89451782 211.14352539 63.93509277 211.13987976 62.94659424 211.13612366 C53.88374079 211.09910555 44.82122498 211.04125867 35.75862885 210.96326828 C31.09995663 210.9238396 26.44147213 210.89162859 21.78265381 210.87617493 C17.28257279 210.86097787 12.78300798 210.82647857 8.28315735 210.778862 C6.57050577 210.76407955 4.85778047 210.75613181 3.14506531 210.75528717 C-7.15227594 210.74510601 -14.52104243 210.52218245 -22.95855713 203.95967102 C-29.53903079 195.49906202 -28.54194051 185.23004824 -28.44244385 175.09614563 C-28.43663916 173.37383395 -28.43213203 171.65151749 -28.42881775 169.92919922 C-28.41580457 165.27216897 -28.38362735 160.61545595 -28.34710455 155.95855784 C-28.31124649 151.07498884 -28.2904119 146.19135102 -28.2671814 141.30770874 C-28.22570064 133.10916322 -28.1714556 124.91077442 -28.10992432 116.71235657 C-28.03905547 107.24488971 -27.98980177 97.77749262 -27.95180881 88.3098411 C-27.91457891 79.18638654 -27.86067699 70.06309957 -27.79968643 60.93977547 C-27.77414745 57.06399132 -27.7546597 53.18824719 -27.74013901 49.31240654 C-27.72237414 44.74611977 -27.69005129 40.18015902 -27.64666176 35.6140461 C-27.63311302 33.94198548 -27.62454586 32.26987565 -27.62142372 30.59776306 C-27.57990549 11.97544254 -27.57990549 11.97544254 -22.80076408 6.64735317 C-16.14124054 0.66054773 -8.61951678 0.0296463 0 0 Z M-11.14605713 17.14717102 C-11.14605713 75.22717102 -11.14605713 133.30717102 -11.14605713 193.14717102 C-8.01772824 194.18994732 -5.85416626 194.26793947 -2.57305908 194.26069641 C-1.43210281 194.26062088 -0.29114655 194.26054535 0.88438416 194.26046753 C2.7313665 194.2527256 2.7313665 194.2527256 4.61566162 194.24482727 C5.87659134 194.24341232 7.13752106 194.24199738 8.43666077 194.24053955 C11.78545996 194.23588677 15.13419098 194.22690444 18.48297119 194.21583557 C21.90154431 194.20559789 25.32012446 194.20103688 28.7387085 194.19599915 C35.44380548 194.18496201 42.14887024 194.16821788 48.85394287 194.14717102 C50.41666476 189.75463329 50.41666476 189.75463329 50.85394287 185.14717102 C67.68394287 185.47717102 84.51394287 185.80717102 101.85394287 186.14717102 C102.51394287 188.78717102 103.17394287 191.42717102 103.85394287 194.14717102 C111.36438369 194.17033567 118.8748208 194.18810718 126.38528919 194.19898319 C129.87265598 194.20420298 133.35999834 194.21128426 136.84735107 194.22261047 C140.85606115 194.23554856 144.86474554 194.24040671 148.87347412 194.24482727 C150.75326714 194.2525692 150.75326714 194.2525692 152.67103577 194.26046753 C153.83201279 194.26054306 154.99298981 194.26061859 156.18914795 194.26069641 C157.72470085 194.26402733 157.72470085 194.26402733 159.29127502 194.26742554 C161.97477059 194.25767937 161.97477059 194.25767937 164.85394287 193.14717102 C164.85394287 135.06717102 164.85394287 76.98717102 164.85394287 17.14717102 C106.77394287 17.14717102 48.69394287 17.14717102 -11.14605713 17.14717102 Z " fill="#AD487C" transform="translate(35.14605712890625,8.852828979492188)"/>
<path d="M0 0 C2.5314646 2.45141829 4.30036713 4.92183753 6 8 C6.44730469 8.79921875 6.89460938 9.5984375 7.35546875 10.421875 C15.41650689 26.40211483 16.23053383 45.05545693 11 62 C10.81195801 62.61939453 10.62391602 63.23878906 10.43017578 63.87695312 C6.71960773 75.67284011 0.79860253 82.76337394 -10 89 C-7.27348629 94.17656275 -3.41724921 97.67802504 0.79296875 101.62695312 C3.67538568 104.40667952 5.07223182 106.17753568 6 110 C7.32467746 110.6837045 8.65863633 111.34964186 10 112 C11.12890625 114.0625 11.12890625 114.0625 12 116 C7.66758789 116.23389268 3.33681072 116.37494264 -1 116.5 C-2.22074219 116.56703125 -3.44148438 116.6340625 -4.69921875 116.703125 C-13.61709539 116.89594395 -13.61709539 116.89594395 -17.54589844 114.35058594 C-19.59425974 112.34174286 -21.31842571 110.32123196 -23 108 C-23.64453125 107.13890625 -24.2890625 106.2778125 -24.953125 105.390625 C-25.38109375 104.68421875 -25.8090625 103.9778125 -26.25 103.25 C-29.50609553 97.56728263 -29.50609553 97.56728263 -35.00097656 94.50195312 C-37.49693744 94.14196877 -39.99065746 93.8746144 -42.5 93.625 C-54.38596427 92.11536617 -63.62634108 88.65855651 -71.9609375 79.6875 C-80.9485826 67.84171489 -83.3546882 55.72555294 -83.3125 41.1875 C-83.33666992 39.53911133 -83.33666992 39.53911133 -83.36132812 37.85742188 C-83.36957139 23.86860313 -79.45169519 13.33788676 -71.875 1.75 C-52.61559459 -16.67203996 -20.43646504 -15.50931731 0 0 Z M-50 11 C-51.6396875 12.0828125 -51.6396875 12.0828125 -53.3125 13.1875 C-56.76993745 16.80574849 -57.8587792 20.2052306 -59 25 C-59.185625 25.70898438 -59.37125 26.41796875 -59.5625 27.1484375 C-61.44765241 39.43559159 -62.24236728 56.43675328 -54.9375 66.9375 C-50.11194892 72.44395706 -45.67251259 74.54446331 -38.44140625 75.44140625 C-30.9864217 75.7942605 -25.28022569 75.26521707 -19.09375 70.9140625 C-13.2139052 65.53883125 -10.29650879 59.96417062 -9.82299805 52.03662109 C-9.75625838 48.48266745 -9.71512547 44.92947659 -9.6875 41.375 C-9.65849609 40.15425781 -9.62949219 38.93351562 -9.59960938 37.67578125 C-9.54170753 29.34682331 -10.02984716 20.65689448 -15.67675781 14.03320312 C-22.61328206 7.53150577 -29.33544629 6.43180522 -38.62109375 6.6484375 C-43.19358019 7.12418753 -46.2825153 8.36569848 -50 11 Z " fill="#9F4183" transform="translate(147,63)"/>
<path d="M0 0 C10.75903317 4.78179252 10.75903317 4.78179252 13.9329071 10.17454338 C16.17988835 16.12411726 15.79429847 22.40977021 15.71289062 28.67407227 C15.71447466 30.24861098 15.7186762 31.8231489 15.72528076 33.39767456 C15.73550132 37.652053 15.70857592 41.90545492 15.67422676 46.15967679 C15.64402663 50.62285965 15.64649979 55.08603321 15.64489746 59.54930115 C15.63752553 67.04174336 15.60765947 74.53381768 15.5625 82.02612305 C15.50473675 91.62875517 15.48404819 101.2310915 15.4751358 110.83387852 C15.46716111 119.10928206 15.44216311 127.38462194 15.41444206 135.65997958 C15.40626702 138.31088602 15.40040421 140.96179023 15.39485168 143.61270332 C15.38502288 147.78493909 15.36454494 151.95699839 15.33597565 156.12914658 C15.32697612 157.65609453 15.32126339 159.18306611 15.31916046 160.71003914 C15.28902874 178.58759568 15.28902874 178.58759568 11.51953125 184.20703125 C10.95621094 184.73683594 10.39289063 185.26664063 9.8125 185.8125 C9.26207031 186.35519531 8.71164063 186.89789063 8.14453125 187.45703125 C2.66492474 191.39955324 -1.95740914 192.36902065 -8.64428711 192.21020508 C-9.37373032 192.19790863 -10.10317352 192.18561218 -10.85472107 192.17294312 C-12.42675295 192.1460569 -13.99868993 192.11304697 -15.57047844 192.07447243 C-18.92270281 191.99950896 -22.27460698 191.97891798 -25.62751865 191.95473003 C-31.85640791 191.9089961 -38.08318741 191.84066282 -44.31030273 191.68139648 C-48.65699373 191.57231337 -52.99972271 191.5320765 -57.34771919 191.53635216 C-58.99659225 191.52522288 -60.64550545 191.48890834 -62.29322624 191.42627907 C-67.51673916 191.23427186 -72.03233316 191.2563774 -77 193 C-80.99766387 196.83672652 -83.05910983 201.90460481 -85 207 C-91.07299805 207.20751953 -91.07299805 207.20751953 -93 207 C-94.8125 204.875 -94.8125 204.875 -96 202 C-96.7734375 200.4840625 -96.7734375 200.4840625 -97.5625 198.9375 C-99 196 -99 196 -99.75 193.6875 C-101.02448568 191.5751488 -101.02448568 191.5751488 -104.625 191.25 C-105.73875 191.1675 -106.8525 191.085 -108 191 C-108.67220351 189.06441401 -109.33758077 187.12645628 -110 185.1875 C-110.37125 184.10855469 -110.7425 183.02960938 -111.125 181.91796875 C-112 179 -112 179 -112 176 C-113.32 176 -114.64 176 -116 176 C-115.67 173.03 -115.34 170.06 -115 167 C-98.17 167 -81.34 167 -64 167 C-62 172 -62 172 -62 176 C-41.54 175.67 -21.08 175.34 0 175 C0 117.25 0 59.5 0 0 Z " fill="#AB487C" transform="translate(201,27)"/>
<path d="M0 0 C22.12288248 -0.09353704 44.24573224 -0.16402513 66.36877251 -0.20724869 C76.64142349 -0.22785364 86.91395144 -0.25593472 97.18652344 -0.30175781 C106.14250972 -0.34168886 115.09840688 -0.36744783 124.05447972 -0.37635398 C128.79449763 -0.38155811 133.5342606 -0.39374656 138.27419662 -0.42292023 C142.74098427 -0.45018844 147.20741337 -0.45842206 151.67427635 -0.45243073 C153.30845403 -0.45352588 154.94264442 -0.46141166 156.5767498 -0.4768219 C175.88186773 -0.64985682 175.88186773 -0.64985682 182.92643547 5.75017929 C187.93700751 11.12297577 189.24973201 16.01375775 189.25396729 23.33865356 C189.25864726 24.43219518 189.25864726 24.43219518 189.26342177 25.54782856 C189.27138504 27.98525625 189.26508477 30.42243383 189.25878906 32.85986328 C189.26149962 34.609407 189.26506092 36.35894958 189.26940918 38.10848999 C189.27852638 42.85620628 189.27499202 47.60383564 189.26865101 52.35155344 C189.26358918 57.31761313 189.26828282 62.28366536 189.27142334 67.24972534 C189.27506177 75.58723284 189.2702664 83.92470491 189.26074219 92.26220703 C189.24985075 101.90812075 189.25338872 111.55394997 189.264395 121.19986165 C189.27346287 129.47765519 189.27475582 137.75542327 189.26951766 146.03322017 C189.26639612 150.9790815 189.2659938 155.92490308 189.27259064 160.87076187 C189.27835645 165.5181106 189.27438127 170.16535003 189.26280212 174.81268692 C189.26015174 176.52073993 189.26092705 178.2288021 189.26532745 179.9368515 C189.27076931 182.26313088 189.26396563 184.58905702 189.25396729 186.91531372 C189.25283621 188.87037433 189.25283621 188.87037433 189.25168228 190.86493111 C189 194 189 194 187 197 C187.00553076 196.15277658 187.01106152 195.30555315 187.01675987 194.43265629 C187.14937259 173.80024938 187.24860612 153.16791612 187.31087303 132.53517246 C187.34178672 122.55722798 187.38391963 112.5795683 187.45263672 102.60180664 C187.51251495 93.90329145 187.55116723 85.20498257 187.56453097 76.50626701 C187.57234052 71.90194938 187.5906424 67.29822186 187.63438034 62.6940937 C187.6752548 58.35604669 187.68763937 54.01883006 187.67864609 49.68060875 C187.68029014 48.09274907 187.69213724 46.50486022 187.71523285 44.91716766 C187.82478782 36.99397398 187.75180608 30.34558201 182.97214699 23.69007778 C180.43407384 21.34456556 180.43407384 21.34456556 174 19 C173.67 76.42 173.34 133.84 173 193 C172.67 193 172.34 193 172 193 C172 134.92 172 76.84 172 17 C113.92 17 55.84 17 -4 17 C-2 10 -2 10 -0.078125 8.7890625 C0.60765625 8.52867188 1.2934375 8.26828125 2 8 C3.73442288 6.29622335 3.73442288 6.29622335 5.25 4.375 C5.77078125 3.74335938 6.2915625 3.11171875 6.828125 2.4609375 C7.21484375 1.97882812 7.6015625 1.49671875 8 1 C5.36 1 2.72 1 0 1 C0 0.67 0 0.34 0 0 Z " fill="#C96781" transform="translate(28,9)"/>
<path d="M0 0 C2 2 2 2 3.3125 4.875 C6.3316166 10.46595667 10.43990147 12.50296237 16.26766968 14.37811279 C21.60025979 15.59182753 26.98487128 15.34156585 32.42578125 15.2578125 C33.69093063 15.25119598 34.95608002 15.24457947 36.25956726 15.23776245 C39.59713502 15.21841349 42.93406209 15.18660136 46.27142334 15.14770508 C50.98716473 15.09524684 55.70305971 15.06344131 60.41899109 15.03366089 C62.9242609 15.01670559 65.42949818 14.99358153 67.93464661 14.96365356 C69.06649887 14.95389496 70.19835114 14.94413635 71.36450195 14.93408203 C72.35883743 14.92281281 73.35317291 14.91154358 74.37763977 14.89993286 C76.79482344 14.99217063 78.74162303 15.13758109 81 16 C82.265625 18.6171875 82.265625 18.6171875 83.25 21.875 C83.75273437 23.47988281 83.75273437 23.47988281 84.265625 25.1171875 C85 28 85 28 85 31 C87.31 31 89.62 31 92 31 C92.495 31.99 92.495 31.99 93 33 C82.96800743 32.96188037 72.93638624 32.90242751 62.90468597 32.81609726 C58.24601376 32.77666858 53.58752926 32.74445757 48.92871094 32.72900391 C44.42862991 32.71380685 39.92906511 32.67930755 35.42921448 32.63169098 C33.7165629 32.61690853 32.0038376 32.60896079 30.29112244 32.60811615 C19.99378119 32.59793499 12.6250147 32.37501143 4.1875 25.8125 C-1.09638365 19.01893531 -1.71521809 11.39005837 -1 3 C-0.67 2.01 -0.34 1.02 0 0 Z " fill="#CC607D" transform="translate(8,187)"/>
<path d="M0 0 C16.83 0 33.66 0 51 0 C51 4.03066454 49.40736314 5.86435711 47.25 9.25 C46.55390625 10.34828125 45.8578125 11.4465625 45.140625 12.578125 C44.82641602 13.06700195 44.51220703 13.55587891 44.18847656 14.05957031 C42.38786009 16.9994429 40.70242615 20.00226897 39 23 C46.75393973 23.02318045 54.50787132 23.04094419 62.26183701 23.05181217 C65.86239598 23.05702851 69.46293124 23.0641035 73.06347656 23.07543945 C76.53884362 23.0863127 80.01418786 23.09228626 83.48957062 23.09487724 C85.45934298 23.09762138 87.42910619 23.10542638 89.39886475 23.11329651 C90.59980774 23.11337204 91.80075073 23.11344757 93.03808594 23.11352539 C94.09509705 23.115746 95.15210815 23.11796661 96.2411499 23.12025452 C98.66717536 23.01450737 100.68609334 22.7008413 103 22 C103 22.33 103 22.66 103 23 C106.63 23.33 110.26 23.66 114 24 C114 24.33 114 24.66 114 25 C113.0656311 24.98143951 112.13126221 24.96287903 111.1685791 24.9437561 C102.3412747 24.7776159 93.51586856 24.68579694 84.68698883 24.66578102 C80.14796602 24.65312715 75.61226143 24.61476954 71.07421875 24.51660156 C66.6899255 24.42272278 62.31004079 24.39776113 57.92485046 24.41953659 C56.25657409 24.41591065 54.58815863 24.38790247 52.92073059 24.33458328 C47.62634227 24.17489749 43.0311245 24.22898586 38 26 C33.99046805 29.83293266 31.93192885 34.89586801 30 40 C23.92700195 40.20751953 23.92700195 40.20751953 22 40 C20.1875 37.875 20.1875 37.875 19 35 C18.484375 33.989375 17.96875 32.97875 17.4375 31.9375 C16 29 16 29 15.25 26.6875 C13.97551432 24.5751488 13.97551432 24.5751488 10.375 24.25 C9.26125 24.1675 8.1475 24.085 7 24 C6.32779649 22.06441401 5.66241923 20.12645628 5 18.1875 C4.62875 17.10855469 4.2575 16.02960938 3.875 14.91796875 C3 12 3 12 3 9 C1.68 9 0.36 9 -1 9 C-0.67 6.03 -0.34 3.06 0 0 Z " fill="#B25187" transform="translate(86,194)"/>
<path d="M0 0 C1.5 1.25 1.5 1.25 3 3 C3 4.32 3 5.64 3 7 C23.13 6.67 43.26 6.34 64 6 C62.37805822 10.05485445 61.46495941 12.00646554 58.75 15.125 C58.18796875 15.78757813 57.6259375 16.45015625 57.046875 17.1328125 C52.69794409 21.09996703 48.52510547 22.37671227 42.71923828 22.34057617 C41.4984256 22.34034958 40.27761292 22.34012299 39.01980591 22.33988953 C37.71647308 22.32440567 36.41314026 22.30892181 35.0703125 22.29296875 C33.71125763 22.28736703 32.35219666 22.28309966 30.99313354 22.28010559 C27.43215945 22.26870194 23.87155785 22.23927429 20.31072998 22.20599365 C16.67074623 22.17519543 13.03070175 22.16157952 9.390625 22.14648438 C2.26026514 22.11439956 -4.86984299 22.06325826 -12 22 C-11.06114555 20.09509436 -10.1191184 18.19175223 -9.17578125 16.2890625 C-8.65153564 15.22896973 -8.12729004 14.16887695 -7.5871582 13.07666016 C-5.88134576 9.7699922 -4.01076572 6.63787363 -1.98046875 3.5234375 C-0.9333437 1.95668493 -0.9333437 1.95668493 0 0 Z " fill="#822D79" transform="translate(136,196)"/>
<path d="M0 0 C3.10916653 2.68031597 4.59657343 5.12022543 6.07421875 8.92578125 C7.63982359 12.43352879 9.74997156 15.61735141 11.79296875 18.86328125 C13 21 13 21 13 23 C11.02 23 9.04 23 7 23 C6.32779649 21.06441401 5.66241923 19.12645628 5 17.1875 C4.62875 16.10855469 4.2575 15.02960938 3.875 13.91796875 C3 11 3 11 3 8 C1.68 8 0.36 8 -1 8 C-1.125 2.25 -1.125 2.25 0 0 Z " fill="#8E3C6C" transform="translate(86,195)"/>
<path d="M0 0 C0.66 0.33 1.32 0.66 2 1 C1.67 2.65 1.34 4.3 1 6 C0.34 6 -0.32 6 -1 6 C-1.18175781 6.56847656 -1.36351562 7.13695312 -1.55078125 7.72265625 C-3.14084634 12.60701003 -4.90459778 17.31029027 -7 22 C-8.65 22 -10.3 22 -12 22 C-8.9249391 15.65966824 -5.83229959 9.43207121 -1.98046875 3.5234375 C-0.9333437 1.95668493 -0.9333437 1.95668493 0 0 Z " fill="#762B64" transform="translate(136,196)"/>
<path d="M0 0 C2 1.75 2 1.75 4 4 C4 5.32 4 6.64 4 8 C2.35 8 0.7 8 -1 8 C-1.125 2.25 -1.125 2.25 0 0 Z " fill="#662562" transform="translate(86,195)"/>
<path d="M0 0 C0.66 0.33 1.32 0.66 2 1 C1.67 2.65 1.34 4.3 1 6 C0.01 6.33 -0.98 6.66 -2 7 C-1.125 2.25 -1.125 2.25 0 0 Z " fill="#5F1D5D" transform="translate(136,196)"/>
</svg>
